# xmcd
#
# Track frame offsets:
#	150
#	10957
#	21522
#	41196
#	53458
#	65168
#	78117
#	89295
#	100900
#	113495
#	123125
#	135073
#	148901
#	158365
#	171825
#	181892
#	190609
#	199539
#	207836
#	218484
#
# Disc length: 3064 seconds
#
# Revision: 1
# Processed by: cddbd v1.5.2PL0 Copyright (c) Steve Scherf et al.
# Submitted via: audiograbber 1.83.01
#
DISCID=fd0bf614
DTITLE=Various Artist - Country and Western - 200 No.1 - Hits (1944-1962) - CD2
DYEAR=2016
DGENRE=Country
TTITLE0=Hank Locklin - Please Help Me I'm Fallin' (1960)
TTITLE1=Jim Reeves - He'll Have to Go (1960)
TTITLE2=Marty Robbins - El Paso (1959)
TTITLE3=Ray Price - The Same Old Me (1959)
TTITLE4=Faron Young - Country Girl (1959)
TTITLE5=The Browns - The Three Bells (1959)
TTITLE6=Stonewall Jackson - Waterloo (1959)
TTITLE7=Johnny Horton - The Battle Of New Orleans (1959)
TTITLE8=George Jones - White Lightning (1959)
TTITLE9=Johnny Horton - When It's Springtime in Alaska (It's Forty Below) (1959
TTITLE9=)
TTITLE10=Johnny Cash - Don't Take Your Guns To Town (1959)
TTITLE11=Jim Reeves - Billy Bayou (1959)
TTITLE12=Ray Price - City Lights (1958)
TTITLE13=Everly Brothers - Bird Dog (1958)
TTITLE14=Don Gibson - Blue Blue Day (1958)
TTITLE15=Faron Young - Alone with You (1958)
TTITLE16=Johnny Cash - Guess Things Happen That way (1958)
TTITLE17=Everly Brothers - All I Have To Do Is Dream (1958)
TTITLE18=Marty Robbins - Just Married (1958)
TTITLE19=Don Gibson - Oh Lonesome Me (1958)
EXTD=
EXTT0=
EXTT1=
EXTT2=
EXTT3=
EXTT4=
EXTT5=
EXTT6=
EXTT7=
EXTT8=
EXTT9=
EXTT10=
EXTT11=
EXTT12=
EXTT13=
EXTT14=
EXTT15=
EXTT16=
EXTT17=
EXTT18=
EXTT19=
PLAYORDER=
